<svg width="141" height="28" viewBox="0 0 141 28" fill="none" xmlns="http://www.w3.org/2000/svg">
<path d="M5.80401 27.9592V25.5566H6.51195L6.93704 27.1955L7.35733 25.5566H8.06687V27.9592H7.6274V26.068L7.16237 27.9592H6.70692L6.24348 26.068V27.9592H5.80401Z" fill="white"/>
<path d="M10.8951 27.9592V25.5566H11.3682V27.9592H10.8951Z" fill="white"/>
<path d="M14.206 27.9592V25.5763H14.679V27.5544H15.8552V27.9592H14.206Z" fill="white"/>
<path d="M18.5796 27.9592V25.5763H19.0526V27.5544H20.2288V27.9592H18.5796Z" fill="white"/>
<path d="M22.9261 27.9592V25.5566H23.3991V27.9592H22.9261Z" fill="white"/>
<path d="M26.8394 27.9592V26.948L25.9812 25.5566H26.5358L27.0871 26.5072L27.6273 25.5566H28.1722L27.3108 26.9513V27.9592H26.8394Z" fill="white"/>
<path d="M35.9941 27.9592H35.4795L35.275 27.4134H34.3385L34.1451 27.9592H33.6433L34.5558 25.5566H35.056L35.9941 27.9592ZM35.1232 27.0086L34.8004 26.1171L34.4839 27.0086H35.1232Z" fill="white"/>
<path d="M39.7093 27.0758V26.671H40.7289V27.6281C40.6298 27.7264 40.486 27.8133 40.2974 27.8887C40.1099 27.963 39.9197 28.0001 39.7269 28.0001C39.4818 28.0001 39.2682 27.9477 39.0861 27.8428C38.9039 27.7368 38.767 27.586 38.6754 27.3905C38.5837 27.1938 38.5379 26.9802 38.5379 26.7497C38.5379 26.4995 38.5891 26.2772 38.6913 26.0827C38.7936 25.8882 38.9433 25.7391 39.1404 25.6353C39.2906 25.5556 39.4776 25.5157 39.7013 25.5157C39.9922 25.5157 40.2191 25.5785 40.3821 25.7041C40.5462 25.8287 40.6516 26.0013 40.6985 26.222L40.2287 26.3121C40.1957 26.1941 40.1333 26.1013 40.0417 26.0335C39.9511 25.9647 39.8377 25.9303 39.7013 25.9303C39.4946 25.9303 39.33 25.9975 39.2075 26.1319C39.0861 26.2663 39.0253 26.4656 39.0253 26.73C39.0253 27.0152 39.0871 27.2293 39.2107 27.3725C39.3343 27.5145 39.4962 27.5855 39.6965 27.5855C39.7956 27.5855 39.8947 27.5658 39.9938 27.5265C40.0939 27.4861 40.1797 27.4375 40.251 27.3806V27.0758H39.7093Z" fill="white"/>
<path d="M43.5396 27.9592V25.5566H45.2767V25.9631H44.0126V26.4957H45.1888V26.9005H44.0126V27.5544H45.3214V27.9592H43.5396Z" fill="white"/>
<path d="M48.1001 27.9592V25.5566H48.5604L49.5192 27.161V25.5566H49.9587V27.9592H49.4841L48.5396 26.3924V27.9592H48.1001Z" fill="white"/>
<path d="M53.3607 27.9592V25.9631H52.6655V25.5566H54.5272V25.9631H53.8337V27.9592H53.3607Z" fill="white"/>
<path d="M57.2197 27.9592V25.5763H57.6927V27.5544H58.8689V27.9592H57.2197Z" fill="white"/>
<path d="M61.5661 27.9592V25.5566H62.0391V27.9592H61.5661Z" fill="white"/>
<path d="M65.9541 27.0758V26.671H66.9737V27.6281C66.8746 27.7264 66.7308 27.8133 66.5422 27.8887C66.3547 27.963 66.1645 28.0001 65.9717 28.0001C65.7266 28.0001 65.513 27.9477 65.3308 27.8428C65.1487 27.7368 65.0118 27.586 64.9201 27.3905C64.8285 27.1938 64.7827 26.9802 64.7827 26.7497C64.7827 26.4995 64.8338 26.2772 64.9361 26.0827C65.0384 25.8882 65.1881 25.7391 65.3852 25.6353C65.5354 25.5556 65.7224 25.5157 65.9461 25.5157C66.237 25.5157 66.4639 25.5785 66.6269 25.7041C66.7909 25.8287 66.8964 26.0013 66.9433 26.222L66.4735 26.3121C66.4404 26.1941 66.3781 26.1013 66.2865 26.0335C66.1959 25.9647 66.0825 25.9303 65.9461 25.9303C65.7394 25.9303 65.5748 25.9975 65.4523 26.1319C65.3308 26.2663 65.2701 26.4656 65.2701 26.73C65.2701 27.0152 65.3319 27.2293 65.4555 27.3725C65.5791 27.5145 65.741 27.5855 65.9413 27.5855C66.0404 27.5855 66.1395 27.5658 66.2385 27.5265C66.3387 27.4861 66.4245 27.4375 66.4958 27.3806V27.0758H65.9541Z" fill="white"/>
<path d="M69.77 27.9592V25.5566H70.243V27.9592H69.77Z" fill="white"/>
<path d="M9.29562 23.4614C6.66258 23.4614 4.45082 22.588 2.66035 20.8411C0.887435 19.0762 0.000976562 16.8881 0.000976562 14.2768C0.000976562 11.5934 0.878658 9.37833 2.63402 7.63145C4.40694 5.86657 6.61869 4.98412 9.26929 4.98412C12.0077 4.98412 14.2545 5.87557 16.0099 7.65846C17.7828 9.42335 18.6693 11.6925 18.6693 14.4659C18.6693 17.0232 17.7652 19.1662 15.9572 20.8951C14.1492 22.606 11.9287 23.4614 9.29562 23.4614ZM3.16063 13.3043C3.16063 15.5554 3.72234 17.5184 4.84578 19.1933C6.12719 21.1022 7.81234 22.0567 9.90122 22.0567C11.5688 22.0567 12.9204 21.4264 13.9561 20.1657C14.9918 18.8871 15.5096 17.2573 15.5096 15.2763C15.5096 13.0972 14.9128 11.1252 13.7191 9.36032C12.3675 7.37932 10.6824 6.38883 8.66369 6.38883C6.9961 6.38883 5.66202 7.02815 4.66146 8.30679C3.66091 9.58543 3.16063 11.2513 3.16063 13.3043Z" fill="white"/>
<path d="M36.0762 16.9241L33.5485 23.4614L33.2326 23.2183C33.0044 23.1462 32.6708 23.1102 32.232 23.1102H21.0416L31.2314 6.68598L28.809 6.57792C27.2292 6.57792 25.8688 6.94711 24.7278 7.68548C23.6044 8.42385 22.7969 9.47738 22.3054 10.8461L22.0684 10.792L23.4113 4.98412C23.6219 5.21824 24.1134 5.3353 24.8858 5.3353H35.418L25.1491 21.7595C26.6236 21.8496 27.4486 21.8946 27.6242 21.8946C29.3795 21.8946 30.9945 21.4444 32.469 20.5439C33.961 19.6255 35.0845 18.3918 35.8393 16.8431L36.0762 16.9241Z" fill="white"/>
<path d="M37.1628 5.3353H46.8261C48.0724 5.3353 48.9852 5.43435 49.5644 5.63245C50.565 5.97462 51.0653 6.64095 51.0653 7.63145C51.0653 8.54991 50.6089 9.36932 49.6961 10.0897C49.3801 10.3238 48.5288 10.8281 47.142 11.6024C50.9512 12.8811 52.8557 14.9341 52.8557 17.7615C52.8557 20.1027 51.864 21.6605 49.8804 22.4349C48.7219 22.8851 46.7471 23.1102 43.9561 23.1102H37.1628V22.8671C37.9 22.759 38.3915 22.3899 38.6373 21.7595C38.7953 21.3453 38.8743 20.679 38.8743 19.7605V8.87407C38.8743 7.88358 38.8041 7.18123 38.6636 6.76702C38.4354 6.08267 37.9352 5.68647 37.1628 5.57842V5.3353ZM41.7706 8.82005V12.4129C45.8782 11.1702 47.9319 9.74751 47.9319 8.14471C47.9319 7.44236 47.5194 6.98313 46.6944 6.76702C46.2205 6.64095 45.5271 6.57792 44.6143 6.57792C43.4031 6.57792 42.6746 6.64996 42.4289 6.79403C41.99 7.04616 41.7706 7.7215 41.7706 8.82005ZM41.7706 13.6825V19.7335C41.7706 20.652 41.8847 21.2373 42.1129 21.4894C42.3587 21.7415 42.9292 21.8676 43.8244 21.8676C47.8442 21.8676 49.8541 20.3728 49.8541 17.3833C49.8541 16.2848 49.4854 15.2763 48.7482 14.3578C48.0285 13.4214 47.0279 12.683 45.7465 12.1427L41.7706 13.6825Z" fill="white"/>
<path d="M67.2199 5.01114L68.4048 10.4409L68.1942 10.5219C67.7027 9.29729 66.8601 8.3338 65.6665 7.63145C64.4728 6.9291 63.1036 6.57792 61.5589 6.57792C60.2775 6.57792 59.5139 6.89308 59.2682 7.5234C59.1804 7.73951 59.1365 8.69398 59.1365 10.3868H61.6379C62.4454 10.3868 63.0071 10.3148 63.323 10.1707C63.8321 9.93661 64.0866 9.46837 64.0866 8.76602L64.3236 8.68498L65.3505 14.736L65.1398 14.8171C64.701 13.3223 63.955 12.3768 62.9018 11.9806C62.3225 11.7645 61.0674 11.6565 59.1365 11.6565V18.8961C59.1365 20.1928 59.3033 21.0122 59.6368 21.3543C59.9703 21.6965 60.7076 21.8676 61.8485 21.8676C65.4646 21.8676 68.0976 20.1297 69.7477 16.654L70.011 16.735L67.7729 23.4614C67.5798 23.2273 67.1936 23.1102 66.6143 23.1102H54.5287V22.8671C55.2659 22.741 55.7574 22.3718 56.0032 21.7595C56.1612 21.3633 56.2402 20.697 56.2402 19.7605V8.87407C56.2402 7.88358 56.1699 7.19023 56.0295 6.79403C55.7838 6.10969 55.2835 5.70448 54.5287 5.57842V5.3353H65.7981C66.5003 5.3353 66.9742 5.22724 67.2199 5.01114Z" fill="white"/>
<path d="M72.1836 19.7605V8.87407C72.1836 7.90159 72.1134 7.20824 71.9729 6.79403C71.7448 6.09168 71.2445 5.68647 70.4721 5.57842V5.3353H76.7914V5.57842C76.0191 5.65046 75.5188 6.01064 75.2906 6.65896C75.1501 7.03715 75.0799 7.71249 75.0799 8.68498V11.9806L78.2133 9.38733C79.9862 7.82055 80.8726 6.76702 80.8726 6.22675C80.8726 6.06466 80.82 5.90258 80.7146 5.7405L80.1617 5.57842V5.3353H86.5073V5.57842C85.3488 5.57842 84.1025 6.10969 82.7684 7.17222C82.5227 7.37032 81.4695 8.27978 79.6088 9.90059C81.961 12.1337 83.9006 15.1862 85.4278 19.0582C85.6209 19.5804 85.9193 20.3728 86.323 21.4354C86.7619 22.2998 87.2973 22.7771 87.9292 22.8671V23.1102H82.1365V22.8671C82.7509 22.7771 83.0581 22.4259 83.0581 21.8136C83.0581 20.4449 82.391 18.644 81.0569 16.4109C80.0037 14.646 78.8452 13.0522 77.5813 11.6295L75.0799 13.6825V19.5714C75.0799 20.616 75.1414 21.3183 75.2642 21.6785C75.51 22.3989 76.0191 22.7951 76.7914 22.8671V23.1102H70.4721V22.8671C71.2094 22.741 71.7009 22.3718 71.9466 21.7595C72.1046 21.3633 72.1836 20.697 72.1836 19.7605Z" fill="white"/>
<path d="M99.9363 8.71199V19.5714C99.9363 20.5619 100.006 21.2643 100.147 21.6785C100.375 22.3628 100.875 22.759 101.648 22.8671V23.1102H95.3284V22.8671C96.0657 22.7771 96.5572 22.4079 96.8029 21.7595C96.9609 21.3453 97.0399 20.679 97.0399 19.7605V8.87407C97.0399 7.88358 96.9697 7.18123 96.8293 6.76702C96.6011 6.08267 96.1008 5.68647 95.3284 5.57842V5.3353H101.648V5.57842C100.91 5.70448 100.419 6.08267 100.173 6.71299C100.015 7.10919 99.9363 7.77552 99.9363 8.71199Z" fill="white"/>
<path d="M116.776 12.0887V8.87407C116.776 7.86557 116.706 7.16322 116.565 6.76702C116.32 6.06466 115.802 5.66847 115.012 5.57842V5.3353H120.199V5.57842C119.462 5.68647 118.97 6.05566 118.724 6.68598C118.567 7.10018 118.488 7.76652 118.488 8.68498V19.5714C118.488 20.616 118.549 21.3183 118.672 21.6785C118.918 22.3628 119.427 22.759 120.199 22.8671V23.1102H115.012V22.8671C115.784 22.7771 116.293 22.4169 116.539 21.7866C116.697 21.3904 116.776 20.715 116.776 19.7605V17.6265C116.776 16.744 116.697 16.1497 116.539 15.8436C116.416 15.5914 116.012 15.1772 115.328 14.6009L107.007 7.49638V19.5714C107.007 20.634 107.069 21.3453 107.192 21.7055C107.42 22.4079 107.929 22.7951 108.719 22.8671V23.1102H103.584V22.8671C104.322 22.759 104.813 22.3899 105.059 21.7595C105.217 21.3453 105.296 20.679 105.296 19.7605V8.87407C105.296 7.88358 105.226 7.18123 105.085 6.76702C104.857 6.08267 104.357 5.68647 103.584 5.57842V5.3353H110.509V5.57842C110.141 5.61444 109.956 5.7315 109.956 5.9296C109.956 6.25376 111.027 7.31629 113.169 9.1172C113.748 9.60344 114.95 10.5939 116.776 12.0887Z" fill="white"/>
<path d="M131.627 23.4614C128.994 23.4614 126.783 22.588 124.992 20.8411C123.219 19.0762 122.333 16.8881 122.333 14.2768C122.333 11.5934 123.21 9.37833 124.966 7.63145C126.739 5.86657 128.95 4.98412 131.601 4.98412C134.339 4.98412 136.586 5.87557 138.342 7.65846C140.115 9.42335 141.001 11.6925 141.001 14.4659C141.001 17.0232 140.097 19.1662 138.289 20.8951C136.481 22.606 134.26 23.4614 131.627 23.4614ZM125.492 13.3043C125.492 15.5554 126.054 17.5184 127.177 19.1933C128.459 21.1022 130.144 22.0567 132.233 22.0567C133.901 22.0567 135.252 21.4264 136.288 20.1657C137.323 18.8871 137.841 17.2573 137.841 15.2763C137.841 13.0972 137.244 11.1252 136.051 9.36032C134.699 7.37932 133.014 6.38883 130.995 6.38883C129.328 6.38883 127.994 7.02815 126.993 8.30679C125.993 9.58543 125.492 11.2513 125.492 13.3043Z" fill="white"/>
<path d="M82.0296 11.9806L85.1629 9.38733C86.9358 7.82055 87.8223 6.76702 87.8223 6.22675C87.8223 6.06466 87.7696 5.90258 87.6643 5.7405L87.1114 5.57842V5.3353H93.457V5.57842C92.2985 5.57842 91.0522 6.10969 89.7181 7.17222C89.4723 7.37032 88.4191 8.27978 86.5584 9.90059C88.9106 12.1337 90.8503 15.1862 92.3775 19.0582C92.5706 19.5804 92.869 20.3728 93.2727 21.4354C93.7116 22.2998 94.2469 22.7771 94.8789 22.8671V23.1102H89.0862V22.8671C89.7005 22.7771 90.0077 22.4259 90.0077 21.8136C90.0077 20.4449 89.3407 18.644 88.0066 16.4109C86.9534 14.646 85.7949 13.0522 84.531 11.6295L82.7921 13.039L82.4108 12.4523L82.0296 11.9806Z" fill="white"/>
<path d="M20.2829 4.49788V4.85864C19.7339 5.04449 19.3101 5.33419 19.0116 5.72775C18.7078 6.11585 18.5559 6.52854 18.5559 6.96583C18.5559 7.06969 18.5799 7.15714 18.6279 7.2282C18.6652 7.2774 18.7025 7.302 18.7398 7.302C18.7984 7.302 18.9264 7.24733 19.1236 7.13801C19.2195 7.08882 19.3208 7.06422 19.4274 7.06422C19.6886 7.06422 19.8965 7.14348 20.051 7.302C20.2056 7.46051 20.2829 7.67916 20.2829 7.95793C20.2829 8.22577 20.1843 8.45535 19.9871 8.64666C19.7845 8.83797 19.5393 8.93363 19.2515 8.93363C18.8997 8.93363 18.5879 8.77511 18.316 8.45808C18.0389 8.14651 17.9003 7.73108 17.9003 7.2118C17.9003 6.64879 18.0922 6.12678 18.476 5.64576C18.8544 5.15928 19.4567 4.77665 20.2829 4.49788Z" fill="white"/>
<path d="M138.098 0.364805C138.098 0.163396 138.258 0.00012207 138.454 0.00012207H139.639C139.836 0.00012207 139.995 0.163396 139.995 0.364805V2.18822C139.995 2.38963 139.836 2.5529 139.639 2.5529H138.454C138.258 2.5529 138.098 2.38963 138.098 2.18822V0.364805Z" fill="white"/>
<path d="M134.661 0.364805C134.661 0.163396 134.82 0.00012207 135.016 0.00012207H136.202C136.398 0.00012207 136.557 0.163396 136.557 0.364805V2.18822C136.557 2.38963 136.398 2.5529 136.202 2.5529H135.016C134.82 2.5529 134.661 2.38963 134.661 2.18822V0.364805Z" fill="white"/>
<path d="M131.223 0.364805C131.223 0.163396 131.382 0.00012207 131.579 0.00012207H132.764C132.96 0.00012207 133.12 0.163396 133.12 0.364805V2.18822C133.12 2.38963 132.96 2.5529 132.764 2.5529H131.579C131.382 2.5529 131.223 2.38963 131.223 2.18822V0.364805Z" fill="white"/>
<path d="M127.904 0.364805C127.904 0.163396 128.063 0.00012207 128.26 0.00012207H129.445C129.641 0.00012207 129.801 0.163396 129.801 0.364805V2.18822C129.801 2.38963 129.641 2.5529 129.445 2.5529H128.26C128.063 2.5529 127.904 2.38963 127.904 2.18822V0.364805Z" fill="white"/>
<path d="M124.466 0.364805C124.466 0.163396 124.626 0.00012207 124.822 0.00012207H126.007C126.204 0.00012207 126.363 0.163396 126.363 0.364805V2.18822C126.363 2.38963 126.204 2.5529 126.007 2.5529H124.822C124.626 2.5529 124.466 2.38963 124.466 2.18822V0.364805Z" fill="white"/>
<path d="M121.029 0.364805C121.029 0.163396 121.188 0.00012207 121.384 0.00012207H122.57C122.766 0.00012207 122.925 0.163396 122.925 0.364805V2.18822C122.925 2.38963 122.766 2.5529 122.57 2.5529H121.384C121.188 2.5529 121.029 2.38963 121.029 2.18822V0.364805Z" fill="white"/>
<path d="M117.591 0.364805C117.591 0.163396 117.75 0.00012207 117.947 0.00012207H119.132C119.329 0.00012207 119.488 0.163396 119.488 0.364805V2.18822C119.488 2.38963 119.329 2.5529 119.132 2.5529H117.947C117.75 2.5529 117.591 2.38963 117.591 2.18822V0.364805Z" fill="white"/>
<path d="M114.154 0.364805C114.154 0.163396 114.313 0.00012207 114.509 0.00012207H115.695C115.891 0.00012207 116.05 0.163396 116.05 0.364805V2.18822C116.05 2.38963 115.891 2.5529 115.695 2.5529H114.509C114.313 2.5529 114.154 2.38963 114.154 2.18822V0.364805Z" fill="white"/>
<path d="M110.716 0.364805C110.716 0.163396 110.875 0.00012207 111.072 0.00012207H112.257C112.453 0.00012207 112.613 0.163396 112.613 0.364805V2.18822C112.613 2.38963 112.453 2.5529 112.257 2.5529H111.072C110.875 2.5529 110.716 2.38963 110.716 2.18822V0.364805Z" fill="white"/>
<path d="M107.278 0.364805C107.278 0.163396 107.438 0.00012207 107.634 0.00012207H108.819C109.016 0.00012207 109.175 0.163396 109.175 0.364805V2.18822C109.175 2.38963 109.016 2.5529 108.819 2.5529H107.634C107.438 2.5529 107.278 2.38963 107.278 2.18822V0.364805Z" fill="white"/>
<path d="M103.959 0.364805C103.959 0.163396 104.118 0.00012207 104.315 0.00012207H105.5C105.697 0.00012207 105.856 0.163396 105.856 0.364805V2.18822C105.856 2.38963 105.697 2.5529 105.5 2.5529H104.315C104.118 2.5529 103.959 2.38963 103.959 2.18822V0.364805Z" fill="white"/>
<path d="M100.522 0.364805C100.522 0.163396 100.681 0.00012207 100.877 0.00012207H102.063C102.259 0.00012207 102.418 0.163396 102.418 0.364805V2.18822C102.418 2.38963 102.259 2.5529 102.063 2.5529H100.877C100.681 2.5529 100.522 2.38963 100.522 2.18822V0.364805Z" fill="white"/>
<path d="M97.084 0.364805C97.084 0.163396 97.2432 0.00012207 97.4396 0.00012207H98.625C98.8214 0.00012207 98.9806 0.163396 98.9806 0.364805V2.18822C98.9806 2.38963 98.8214 2.5529 98.625 2.5529H97.4396C97.2432 2.5529 97.084 2.38963 97.084 2.18822V0.364805Z" fill="white"/>
<path d="M93.6464 0.364805C93.6464 0.163396 93.8056 0.00012207 94.002 0.00012207H95.1874C95.3838 0.00012207 95.543 0.163396 95.543 0.364805V2.18822C95.543 2.38963 95.3838 2.5529 95.1874 2.5529H94.002C93.8056 2.5529 93.6464 2.38963 93.6464 2.18822V0.364805Z" fill="white"/>
<path d="M90.2088 0.364805C90.2088 0.163396 90.368 0.00012207 90.5644 0.00012207H91.7498C91.9462 0.00012207 92.1054 0.163396 92.1054 0.364805V2.18822C92.1054 2.38963 91.9462 2.5529 91.7498 2.5529H90.5644C90.368 2.5529 90.2088 2.38963 90.2088 2.18822V0.364805Z" fill="white"/>
<path d="M86.8897 0.364805C86.8897 0.163396 87.0489 0.00012207 87.2453 0.00012207H88.4307C88.6271 0.00012207 88.7863 0.163396 88.7863 0.364805V2.18822C88.7863 2.38963 88.6271 2.5529 88.4307 2.5529H87.2453C87.0489 2.5529 86.8897 2.38963 86.8897 2.18822V0.364805Z" fill="white"/>
<path d="M83.4521 0.364805C83.4521 0.163396 83.6113 0.00012207 83.8077 0.00012207H84.9931C85.1895 0.00012207 85.3487 0.163396 85.3487 0.364805V2.18822C85.3487 2.38963 85.1895 2.5529 84.9931 2.5529H83.8077C83.6113 2.5529 83.4521 2.38963 83.4521 2.18822V0.364805Z" fill="white"/>
<path d="M80.0145 0.364805C80.0145 0.163396 80.1737 0.00012207 80.3701 0.00012207H81.5555C81.7519 0.00012207 81.9111 0.163396 81.9111 0.364805V2.18822C81.9111 2.38963 81.7519 2.5529 81.5555 2.5529H80.3701C80.1737 2.5529 80.0145 2.38963 80.0145 2.18822V0.364805Z" fill="white"/>
<path d="M76.5768 0.364805C76.5768 0.163396 76.7361 0.00012207 76.9325 0.00012207H78.1178C78.3142 0.00012207 78.4735 0.163396 78.4735 0.364805V2.18822C78.4735 2.38963 78.3142 2.5529 78.1178 2.5529H76.9325C76.7361 2.5529 76.5768 2.38963 76.5768 2.18822V0.364805Z" fill="white"/>
<path d="M73.1392 0.364805C73.1392 0.163396 73.2984 0.00012207 73.4948 0.00012207H74.6802C74.8766 0.00012207 75.0358 0.163396 75.0358 0.364805V2.18822C75.0358 2.38963 74.8766 2.5529 74.6802 2.5529H73.4948C73.2984 2.5529 73.1392 2.38963 73.1392 2.18822V0.364805Z" fill="white"/>
<path d="M69.7016 0.364805C69.7016 0.163396 69.8608 0.00012207 70.0572 0.00012207H71.2426C71.439 0.00012207 71.5982 0.163396 71.5982 0.364805V2.18822C71.5982 2.38963 71.439 2.5529 71.2426 2.5529H70.0572C69.8608 2.5529 69.7016 2.38963 69.7016 2.18822V0.364805Z" fill="white"/>
<path d="M66.3825 0.364805C66.3825 0.163396 66.5417 0.00012207 66.7381 0.00012207H67.9235C68.1199 0.00012207 68.2791 0.163396 68.2791 0.364805V2.18822C68.2791 2.38963 68.1199 2.5529 67.9235 2.5529H66.7381C66.5417 2.5529 66.3825 2.38963 66.3825 2.18822V0.364805Z" fill="white"/>
<path d="M62.9449 0.364805C62.9449 0.163396 63.1041 0.00012207 63.3005 0.00012207H64.4859C64.6823 0.00012207 64.8415 0.163396 64.8415 0.364805V2.18822C64.8415 2.38963 64.6823 2.5529 64.4859 2.5529H63.3005C63.1041 2.5529 62.9449 2.38963 62.9449 2.18822V0.364805Z" fill="white"/>
<path d="M59.5073 0.364805C59.5073 0.163396 59.6665 0.00012207 59.8629 0.00012207H61.0483C61.2447 0.00012207 61.4039 0.163396 61.4039 0.364805V2.18822C61.4039 2.38963 61.2447 2.5529 61.0483 2.5529H59.8629C59.6665 2.5529 59.5073 2.38963 59.5073 2.18822V0.364805Z" fill="white"/>
<path d="M56.0697 0.364805C56.0697 0.163396 56.2289 0.00012207 56.4253 0.00012207H57.6107C57.8071 0.00012207 57.9663 0.163396 57.9663 0.364805V2.18822C57.9663 2.38963 57.8071 2.5529 57.6107 2.5529H56.4253C56.2289 2.5529 56.0697 2.38963 56.0697 2.18822V0.364805Z" fill="white"/>
<path d="M52.7506 0.364805C52.7506 0.163396 52.9098 0.00012207 53.1062 0.00012207H54.2916C54.488 0.00012207 54.6472 0.163396 54.6472 0.364805V2.18822C54.6472 2.38963 54.488 2.5529 54.2916 2.5529H53.1062C52.9098 2.5529 52.7506 2.38963 52.7506 2.18822V0.364805Z" fill="white"/>
<path d="M49.313 0.364805C49.313 0.163396 49.4722 0.00012207 49.6686 0.00012207H50.854C51.0504 0.00012207 51.2096 0.163396 51.2096 0.364805V2.18822C51.2096 2.38963 51.0504 2.5529 50.854 2.5529H49.6686C49.4722 2.5529 49.313 2.38963 49.313 2.18822V0.364805Z" fill="white"/>
<path d="M45.8754 0.364805C45.8754 0.163396 46.0346 0.00012207 46.231 0.00012207H47.4164C47.6128 0.00012207 47.772 0.163396 47.772 0.364805V2.18822C47.772 2.38963 47.6128 2.5529 47.4164 2.5529H46.231C46.0346 2.5529 45.8754 2.38963 45.8754 2.18822V0.364805Z" fill="white"/>
<path d="M42.4378 0.364805C42.4378 0.163396 42.597 0.00012207 42.7934 0.00012207H43.9788C44.1752 0.00012207 44.3344 0.163396 44.3344 0.364805V2.18822C44.3344 2.38963 44.1752 2.5529 43.9788 2.5529H42.7934C42.597 2.5529 42.4378 2.38963 42.4378 2.18822V0.364805Z" fill="white"/>
<path d="M39.0001 0.364805C39.0001 0.163396 39.1594 0.00012207 39.3558 0.00012207H40.5411C40.7375 0.00012207 40.8968 0.163396 40.8968 0.364805V2.18822C40.8968 2.38963 40.7375 2.5529 40.5411 2.5529H39.3558C39.1594 2.5529 39.0001 2.38963 39.0001 2.18822V0.364805Z" fill="white"/>
<path d="M35.5625 0.364805C35.5625 0.163396 35.7217 0.00012207 35.9181 0.00012207H37.1035C37.2999 0.00012207 37.4591 0.163396 37.4591 0.364805V2.18822C37.4591 2.38963 37.2999 2.5529 37.1035 2.5529H35.9181C35.7217 2.5529 35.5625 2.38963 35.5625 2.18822V0.364805Z" fill="white"/>
<path d="M32.2434 0.364805C32.2434 0.163396 32.4027 0.00012207 32.5991 0.00012207H33.7844C33.9808 0.00012207 34.1401 0.163396 34.1401 0.364805V2.18822C34.1401 2.38963 33.9808 2.5529 33.7844 2.5529H32.5991C32.4027 2.5529 32.2434 2.38963 32.2434 2.18822V0.364805Z" fill="white"/>
<path d="M28.8058 0.364805C28.8058 0.163396 28.965 0.00012207 29.1614 0.00012207H30.3468C30.5432 0.00012207 30.7024 0.163396 30.7024 0.364805V2.18822C30.7024 2.38963 30.5432 2.5529 30.3468 2.5529H29.1614C28.965 2.5529 28.8058 2.38963 28.8058 2.18822V0.364805Z" fill="white"/>
<path d="M25.4868 0.364805C25.4868 0.163396 25.646 0.00012207 25.8424 0.00012207H26.7907C26.9871 0.00012207 27.1463 0.163396 27.1463 0.364805V2.18822C27.1463 2.38963 26.9871 2.5529 26.7907 2.5529H25.8424C25.646 2.5529 25.4868 2.38963 25.4868 2.18822V0.364805Z" fill="white"/>
<path d="M22.1677 0.364805C22.1677 0.163396 22.3269 0.00012207 22.5233 0.00012207H23.4716C23.668 0.00012207 23.8272 0.163396 23.8272 0.364805V2.18822C23.8272 2.38963 23.668 2.5529 23.4716 2.5529H22.5233C22.3269 2.5529 22.1677 2.38963 22.1677 2.18822V0.364805Z" fill="white"/>
<path d="M19.0857 0.364805C19.0857 0.163396 19.2449 0.00012207 19.4413 0.00012207H20.1525C20.3489 0.00012207 20.5081 0.163396 20.5081 0.364805V2.18822C20.5081 2.38963 20.3489 2.5529 20.1525 2.5529H19.4413C19.2449 2.5529 19.0857 2.38963 19.0857 2.18822V0.364805Z" fill="white"/>
<path d="M16.1222 0.364805C16.1222 0.163396 16.2814 0.00012207 16.4778 0.00012207H16.952C17.1484 0.00012207 17.3076 0.163396 17.3076 0.364805V2.18822C17.3076 2.38963 17.1484 2.5529 16.952 2.5529H16.4778C16.2814 2.5529 16.1222 2.38963 16.1222 2.18822V0.364805Z" fill="white"/>
<path d="M13.3958 0.364805C13.3958 0.163396 13.555 0.00012207 13.7514 0.00012207H13.9885C14.1849 0.00012207 14.3441 0.163396 14.3441 0.364805V2.18822C14.3441 2.38963 14.1849 2.5529 13.9885 2.5529H13.7514C13.555 2.5529 13.3958 2.38963 13.3958 2.18822V0.364805Z" fill="white"/>
<path d="M11.0251 0.364805C11.0251 0.163396 11.1843 0.00012207 11.3807 0.00012207H11.4992C11.6956 0.00012207 11.8548 0.163396 11.8548 0.364805V2.18822C11.8548 2.38963 11.6956 2.5529 11.4992 2.5529H11.3807C11.1843 2.5529 11.0251 2.38963 11.0251 2.18822V0.364805Z" fill="white"/>
<path d="M8.65429 0.304025C8.65429 0.136184 8.78697 0.00012207 8.95063 0.00012207C9.1143 0.00012207 9.24698 0.136184 9.24698 0.304025V2.249C9.24698 2.41684 9.1143 2.5529 8.95063 2.5529C8.78697 2.5529 8.65429 2.41684 8.65429 2.249V0.304025Z" fill="white"/>
<path d="M6.16498 0.243244C6.16498 0.108971 6.27112 0.00012207 6.40206 0.00012207C6.53299 0.00012207 6.63913 0.108972 6.63913 0.243244V2.30978C6.63913 2.44405 6.53299 2.5529 6.40206 2.5529C6.27112 2.5529 6.16498 2.44405 6.16498 2.30978V0.243244Z" fill="white"/>
<path d="M4.14982 0.121683C4.14982 0.0545468 4.2029 0.00012207 4.26836 0.00012207C4.33383 0.00012207 4.3869 0.0545468 4.3869 0.121683V2.43134C4.3869 2.49848 4.33383 2.5529 4.26836 2.5529C4.2029 2.5529 4.14982 2.49848 4.14982 2.43134V0.121683Z" fill="white"/>
<path d="M138.098 25.7711C138.098 25.5696 138.258 25.4064 138.454 25.4064H139.639C139.836 25.4064 139.995 25.5696 139.995 25.7711V27.5945C139.995 27.7959 139.836 27.9592 139.639 27.9592H138.454C138.258 27.9592 138.098 27.7959 138.098 27.5945V25.7711Z" fill="white"/>
<path d="M134.661 25.7711C134.661 25.5696 134.82 25.4064 135.016 25.4064H136.202C136.398 25.4064 136.557 25.5696 136.557 25.7711V27.5945C136.557 27.7959 136.398 27.9592 136.202 27.9592H135.016C134.82 27.9592 134.661 27.7959 134.661 27.5945V25.7711Z" fill="white"/>
<path d="M131.223 25.7711C131.223 25.5696 131.382 25.4064 131.579 25.4064H132.764C132.96 25.4064 133.12 25.5696 133.12 25.7711V27.5945C133.12 27.7959 132.96 27.9592 132.764 27.9592H131.579C131.382 27.9592 131.223 27.7959 131.223 27.5945V25.7711Z" fill="white"/>
<path d="M127.785 25.7711C127.785 25.5696 127.945 25.4064 128.141 25.4064H129.326C129.523 25.4064 129.682 25.5696 129.682 25.7711V27.5945C129.682 27.7959 129.523 27.9592 129.326 27.9592H128.141C127.945 27.9592 127.785 27.7959 127.785 27.5945V25.7711Z" fill="white"/>
<path d="M124.466 25.7711C124.466 25.5696 124.626 25.4064 124.822 25.4064H126.007C126.204 25.4064 126.363 25.5696 126.363 25.7711V27.5945C126.363 27.7959 126.204 27.9592 126.007 27.9592H124.822C124.626 27.9592 124.466 27.7959 124.466 27.5945V25.7711Z" fill="white"/>
<path d="M121.029 25.7711C121.029 25.5696 121.188 25.4064 121.384 25.4064H122.57C122.766 25.4064 122.925 25.5696 122.925 25.7711V27.5945C122.925 27.7959 122.766 27.9592 122.57 27.9592H121.384C121.188 27.9592 121.029 27.7959 121.029 27.5945V25.7711Z" fill="white"/>
<path d="M117.591 25.7711C117.591 25.5696 117.75 25.4064 117.947 25.4064H119.132C119.329 25.4064 119.488 25.5696 119.488 25.7711V27.5945C119.488 27.7959 119.329 27.9592 119.132 27.9592H117.947C117.75 27.9592 117.591 27.7959 117.591 27.5945V25.7711Z" fill="white"/>
<path d="M114.154 25.7711C114.154 25.5696 114.313 25.4064 114.509 25.4064H115.695C115.891 25.4064 116.05 25.5696 116.05 25.7711V27.5945C116.05 27.7959 115.891 27.9592 115.695 27.9592H114.509C114.313 27.9592 114.154 27.7959 114.154 27.5945V25.7711Z" fill="white"/>
<path d="M110.716 25.7711C110.716 25.5696 110.875 25.4064 111.072 25.4064H112.257C112.453 25.4064 112.613 25.5696 112.613 25.7711V27.5945C112.613 27.7959 112.453 27.9592 112.257 27.9592H111.072C110.875 27.9592 110.716 27.7959 110.716 27.5945V25.7711Z" fill="white"/>
<path d="M107.278 25.7711C107.278 25.5696 107.438 25.4064 107.634 25.4064H108.819C109.016 25.4064 109.175 25.5696 109.175 25.7711V27.5945C109.175 27.7959 109.016 27.9592 108.819 27.9592H107.634C107.438 27.9592 107.278 27.7959 107.278 27.5945V25.7711Z" fill="white"/>
<path d="M103.959 25.7711C103.959 25.5696 104.118 25.4064 104.315 25.4064H105.5C105.697 25.4064 105.856 25.5696 105.856 25.7711V27.5945C105.856 27.7959 105.697 27.9592 105.5 27.9592H104.315C104.118 27.9592 103.959 27.7959 103.959 27.5945V25.7711Z" fill="white"/>
<path d="M100.522 25.7711C100.522 25.5696 100.681 25.4064 100.877 25.4064H102.063C102.259 25.4064 102.418 25.5696 102.418 25.7711V27.5945C102.418 27.7959 102.259 27.9592 102.063 27.9592H100.877C100.681 27.9592 100.522 27.7959 100.522 27.5945V25.7711Z" fill="white"/>
<path d="M97.2025 25.7711C97.2025 25.5696 97.3618 25.4064 97.5582 25.4064H98.5065C98.7029 25.4064 98.8621 25.5696 98.8621 25.7711V27.5945C98.8621 27.7959 98.7029 27.9592 98.5065 27.9592H97.5582C97.3618 27.9592 97.2025 27.7959 97.2025 27.5945V25.7711Z" fill="white"/>
<path d="M93.8835 25.7711C93.8835 25.5696 94.0427 25.4064 94.2391 25.4064H95.1874C95.3838 25.4064 95.543 25.5696 95.543 25.7711V27.5945C95.543 27.7959 95.3838 27.9592 95.1874 27.9592H94.2391C94.0427 27.9592 93.8835 27.7959 93.8835 27.5945V25.7711Z" fill="white"/>
<path d="M90.8015 25.7711C90.8015 25.5696 90.9607 25.4064 91.1571 25.4064H91.8683C92.0647 25.4064 92.2239 25.5696 92.2239 25.7711V27.5945C92.2239 27.7959 92.0647 27.9592 91.8683 27.9592H91.1571C90.9607 27.9592 90.8015 27.7959 90.8015 27.5945V25.7711Z" fill="white"/>
<path d="M87.838 25.7711C87.838 25.5696 87.9972 25.4064 88.1936 25.4064H88.6678C88.8642 25.4064 89.0234 25.5696 89.0234 25.7711V27.5945C89.0234 27.7959 88.8642 27.9592 88.6678 27.9592H88.1936C87.9972 27.9592 87.838 27.7959 87.838 27.5945V25.7711Z" fill="white"/>
<path d="M85.1116 25.7711C85.1116 25.5696 85.2708 25.4064 85.4672 25.4064H85.7043C85.9007 25.4064 86.0599 25.5696 86.0599 25.7711V27.5945C86.0599 27.7959 85.9007 27.9592 85.7043 27.9592H85.4672C85.2708 27.9592 85.1116 27.7959 85.1116 27.5945V25.7711Z" fill="white"/>
<path d="M82.7408 25.7711C82.7408 25.5696 82.9001 25.4064 83.0965 25.4064H83.215C83.4114 25.4064 83.5706 25.5696 83.5706 25.7711V27.5945C83.5706 27.7959 83.4114 27.9592 83.215 27.9592H83.0965C82.9001 27.9592 82.7408 27.7959 82.7408 27.5945V25.7711Z" fill="white"/>
<path d="M80.3701 25.7103C80.3701 25.5424 80.5028 25.4064 80.6664 25.4064C80.8301 25.4064 80.9628 25.5424 80.9628 25.7103V27.6552C80.9628 27.8231 80.8301 27.9592 80.6664 27.9592C80.5028 27.9592 80.3701 27.8231 80.3701 27.6552V25.7103Z" fill="white"/>
<path d="M77.8808 25.6495C77.8808 25.5152 77.9869 25.4064 78.1178 25.4064C78.2488 25.4064 78.3549 25.5152 78.3549 25.6495V27.716C78.3549 27.8503 78.2488 27.9592 78.1178 27.9592C77.9869 27.9592 77.8808 27.8503 77.8808 27.716V25.6495Z" fill="white"/>
<path d="M75.8656 25.5279C75.8656 25.4608 75.9187 25.4064 75.9841 25.4064C76.0496 25.4064 76.1027 25.4608 76.1027 25.5279V27.8376C76.1027 27.9047 76.0496 27.9592 75.9841 27.9592C75.9187 27.9592 75.8656 27.9047 75.8656 27.8376V25.5279Z" fill="white"/>
</svg>
