<svg width="17" height="13" viewBox="0 0 17 13" fill="none" xmlns="http://www.w3.org/2000/svg">
<path fill-rule="evenodd" clip-rule="evenodd" d="M1.58887 6.90222C1.66174 7.02813 1.75834 7.1886 1.87801 7.37388C2.18537 7.84977 2.64054 8.48263 3.23148 9.11294C4.42552 10.3865 6.0949 11.5689 8.16198 11.5689C10.2291 11.5689 11.8985 10.3865 13.0925 9.11294C13.6834 8.48263 14.1386 7.84977 14.446 7.37388C14.5656 7.1886 14.6622 7.02813 14.7351 6.90222C14.6622 6.77631 14.5656 6.61584 14.446 6.43056C14.1386 5.95467 13.6834 5.32182 13.0925 4.69151C11.8985 3.41792 10.2291 2.23556 8.16198 2.23556C6.0949 2.23556 4.42552 3.41792 3.23148 4.69151C2.64054 5.32182 2.18537 5.95467 1.87801 6.43056C1.75834 6.61584 1.66174 6.77631 1.58887 6.90222ZM15.4956 6.90222C16.0919 6.60408 16.0917 6.60362 16.0917 6.60362L16.0906 6.60146L16.0883 6.59692L16.0807 6.58211C16.0744 6.56975 16.0654 6.55243 16.0538 6.53052C16.0306 6.48669 15.997 6.42437 15.953 6.34621C15.8651 6.18998 15.7357 5.96991 15.5661 5.70722C15.2276 5.18311 14.7244 4.48263 14.0653 3.7796C12.7592 2.38652 10.7618 0.902222 8.16198 0.902222C5.5622 0.902222 3.56479 2.38652 2.25872 3.7796C1.59961 4.48263 1.09641 5.18311 0.757907 5.70722C0.588243 5.96991 0.458853 6.18998 0.370969 6.34621C0.327002 6.42437 0.293347 6.48669 0.270155 6.53052C0.258557 6.55243 0.249576 6.56975 0.243217 6.58211L0.235649 6.59692L0.23335 6.60146L0.232577 6.60303C0.232577 6.60303 0.232036 6.60408 0.828345 6.90222L0.232577 6.60303C0.13873 6.79071 0.138201 7.01267 0.232048 7.20036L0.828345 6.90222C0.232036 7.20036 0.232048 7.20036 0.232048 7.20036L0.23335 7.20298L0.235649 7.20752L0.243217 7.22233C0.249576 7.2347 0.258557 7.25201 0.270155 7.27393C0.293347 7.31775 0.327002 7.38007 0.370969 7.45823C0.458853 7.61446 0.588243 7.83454 0.757907 8.09723C1.09641 8.62134 1.59961 9.32182 2.25872 10.0248C3.56479 11.4179 5.5622 12.9022 8.16198 12.9022C10.7618 12.9022 12.7592 11.4179 14.0653 10.0248C14.7244 9.32182 15.2276 8.62134 15.5661 8.09723C15.7357 7.83454 15.8651 7.61446 15.953 7.45823C15.997 7.38007 16.0306 7.31775 16.0538 7.27393C16.0654 7.25201 16.0744 7.2347 16.0807 7.22233L16.0883 7.20752L16.0906 7.20298L16.0914 7.20142C16.0914 7.20142 16.0919 7.20036 15.4956 6.90222ZM15.4956 6.90222L16.0914 7.20142C16.1852 7.01373 16.1855 6.7913 16.0917 6.60362L15.4956 6.90222Z" fill="white"/>
<path fill-rule="evenodd" clip-rule="evenodd" d="M8.16198 5.56889C7.42557 5.56889 6.82859 6.16584 6.82859 6.90222C6.82859 7.6386 7.42557 8.23556 8.16198 8.23556C8.89839 8.23556 9.49537 7.6386 9.49537 6.90222C9.49537 6.16584 8.89839 5.56889 8.16198 5.56889ZM5.4952 6.90222C5.4952 5.42946 6.68916 4.23556 8.16198 4.23556C9.6348 4.23556 10.8288 5.42946 10.8288 6.90222C10.8288 8.37498 9.6348 9.56889 8.16198 9.56889C6.68916 9.56889 5.4952 8.37498 5.4952 6.90222Z" fill="white"/>
</svg>
