<svg viewBox="0 0 13 13" fill="none" xmlns="http://www.w3.org/2000/svg">
<path fill-rule="evenodd" clip-rule="evenodd" d="M6.2773 1.32427C3.9577 1.32427 2.07729 3.20468 2.07729 5.52428C2.07729 7.84388 3.9577 9.72429 6.2773 9.72429C8.5969 9.72429 10.4773 7.84388 10.4773 5.52428C10.4773 3.20468 8.5969 1.32427 6.2773 1.32427ZM0.877289 5.52428C0.877289 2.54193 3.29496 0.124268 6.2773 0.124268C9.25964 0.124268 11.6773 2.54193 11.6773 5.52428C11.6773 8.50662 9.25964 10.9243 6.2773 10.9243C3.29496 10.9243 0.877289 8.50662 0.877289 5.52428Z" />
<path fill-rule="evenodd" clip-rule="evenodd" d="M9.24305 8.49001C9.47736 8.25569 9.85726 8.25569 10.0916 8.49001L12.7016 11.1C12.9359 11.3343 12.9359 11.7142 12.7016 11.9485C12.4673 12.1829 12.0874 12.1829 11.8531 11.9485L9.24305 9.33856C9.00873 9.10424 9.00873 8.72432 9.24305 8.49001Z" />
</svg>
