<svg width="80" height="80" viewBox="0 0 80 80" xmlns="http://www.w3.org/2000/svg">
<path d="M69.3333 13.3421H72V16.0084H69.3333V13.3421Z" />
<path d="M64 13.3421H66.6667V16.0084H64V13.3421Z" />
<path d="M75.8158 77.3337L68.2122 26.6522C70.3307 26.5428 71.9948 24.7957 72 22.6742V21.3411H76C77.472 21.3391 78.6647 20.1466 78.6667 18.6747V10.6758C78.6647 9.20399 77.472 8.01144 76 8.00948H73.9251C74.4056 7.20295 74.6615 6.2825 74.6667 5.34317C74.6758 3.12015 73.2988 1.12627 71.2161 0.34708C69.1335 -0.431463 66.7858 0.169369 65.3333 1.85339C63.543 -0.236176 60.4518 -0.609825 58.2148 0.992829C55.9779 2.59613 55.3379 5.64261 56.7415 8.00948H54.6667C53.7188 8.01274 52.8438 8.52113 52.3711 9.34264H48.3158L44.2279 7.29864C43.6081 6.98943 42.8717 7.02328 42.2826 7.38717C41.6934 7.7517 41.334 8.39485 41.3333 9.08747V20.2631C41.3327 20.957 41.6914 21.6014 42.2812 21.966C42.8711 22.3305 43.6081 22.3631 44.2279 22.0519L48.3158 20.0079H52.3711C52.8438 20.8301 53.7188 21.3378 54.6667 21.3411H58.6667V22.6742C58.6725 24.7957 60.3359 26.5428 62.4551 26.6522L54.8516 77.3337H50.6667V80H80V77.3337H75.8158ZM69.3333 2.67685C70.806 2.67685 72 3.8707 72 5.34317C72 6.81563 70.806 8.00948 69.3333 8.00948C67.8607 8.00948 66.6667 6.81563 66.6667 5.34317C66.6686 3.87136 67.8613 2.6788 69.3333 2.67685ZM58.6667 5.34317C58.6667 3.8707 59.8607 2.67685 61.3333 2.67685C62.806 2.67685 64 3.8707 64 5.34317C64 6.81563 62.806 8.00948 61.3333 8.00948C59.8613 8.00753 58.6686 6.81498 58.6667 5.34317ZM44 19.1851V10.1654L46.6667 11.4999V17.8506L44 19.1851ZM49.3333 12.009H52V17.3416H49.3333V12.009ZM54.6667 18.6747V10.6758H76V18.6747H54.6667ZM62.6667 24.0074C61.9303 24.0074 61.334 23.4104 61.3333 22.6742V21.3411H69.3333V22.6742C69.3327 23.4104 68.7363 24.0074 68 24.0074H62.6667ZM65.1484 26.6737H65.5182L73.1178 77.3337H57.5488L65.1484 26.6737Z" />
<path d="M46.6667 61.3358V50.2995C47.4889 49.8269 47.9967 48.9527 48 48.0042V45.3379C47.9981 43.8661 46.8053 42.6735 45.3333 42.6716H38.6667V40.0053C40.875 40.0033 42.6641 38.2138 42.6667 36.0058V30.6732C42.6641 28.4658 40.875 26.6763 38.6667 26.6737H10.6667C8.45833 26.6763 6.66927 28.4658 6.66667 30.6732V36.0058C6.66927 38.2138 8.45833 40.0033 10.6667 40.0053V42.6716H4C2.528 42.6735 1.33529 43.8661 1.33333 45.3379V48.0042C1.33659 48.9527 1.8444 49.8269 2.66667 50.2995V61.3358C1.19466 61.3377 0.00195313 62.5303 0 64.0021V66.6684C0.00195313 68.1402 1.19466 69.3328 2.66667 69.3347H5.33333C6.0013 69.3334 6.64453 69.0789 7.13281 68.6232L20.168 72.6676L4.9375 77.3936L5.72917 79.9401L24.6667 74.0639L43.6042 79.9401L44.3958 77.3936L29.166 72.6676L42.2005 68.6232C42.6888 69.0789 43.332 69.3334 44 69.3347H46.6667C48.1387 69.3328 49.3314 68.1402 49.3333 66.6684V64.0021C49.3314 62.5303 48.1387 61.3377 46.6667 61.3358ZM41.3333 64.0021V66.1001L36 67.7549V61.3358H38.6667C40.1387 61.3338 41.3314 60.1413 41.3333 58.6695V56.0032C41.3314 54.5314 40.1387 53.3388 38.6667 53.3368V50.6705H44V61.3358C42.528 61.3377 41.3353 62.5303 41.3333 64.0021ZM10.6667 58.6695V56.0032H38.6667V58.6695H10.6667ZM45.3333 48.0042H36L35.9974 45.3379H45.3333V48.0042ZM9.33333 36.0058V30.6732C9.33398 29.9369 9.93034 29.3407 10.6667 29.34H38.6667C39.403 29.3407 39.9994 29.9369 40 30.6732V36.0058C39.9994 36.742 39.403 37.339 38.6667 37.339H10.6667C9.93034 37.339 9.33398 36.742 9.33333 36.0058ZM13.3333 40.0053H36V42.6716C34.528 42.6735 33.3353 43.8661 33.3333 45.3379V48.0042C33.3353 49.476 34.528 50.6686 36 50.6705V53.3368H13.3333V50.6705C14.8053 50.6686 15.998 49.476 16 48.0042V45.3379C15.998 43.8661 14.8053 42.6735 13.3333 42.6716V40.0053ZM4 45.3379H13.3333V48.0042H4V45.3379ZM5.33333 50.6705H10.6667V53.3368C9.19466 53.3388 8.00195 54.5314 8 56.0032V58.6695C8.00195 60.1413 9.19466 61.3338 10.6667 61.3358H13.3333V67.7549L8 66.1001V64.0021C7.99805 62.5303 6.80534 61.3377 5.33333 61.3358V50.6705ZM2.66667 64.0021H5.33333V66.6684H2.66667V64.0021ZM16 68.5822V61.3358H33.3333V68.5822L24.6667 71.272L16 68.5822ZM46.6667 66.6684H44V64.0021H46.6667V66.6684Z" />
</svg>
