<svg width="80" height="80" viewBox="0 0 80 80" xmlns="http://www.w3.org/2000/svg">
<path d="M54.889 45.1059L44.0078 38.4321C43.8752 38.3507 43.7228 38.2956 43.5689 38.2715L40.1622 37.6715C39.532 37.5603 38.9131 37.9931 38.8019 38.6221C38.6908 39.2512 39.1239 39.869 39.7541 39.9799L42.9689 40.5462L53.6598 47.1032C54.1817 47.4234 54.8975 47.2679 55.2439 46.7648C55.6155 46.2248 55.4477 45.4489 54.889 45.1059Z"/>
<path d="M79.6836 45.4817C79.2406 45.0087 78.4977 44.9837 78.0238 45.4256L73.2637 49.8662L51.4525 28.3846L79.6285 2.02707C80.1015 1.58441 80.1256 0.842692 79.6823 0.370504C79.239 -0.101684 78.4958 -0.125747 78.0227 0.316754L48.9557 27.5077C48.4764 27.956 48.4664 28.7366 48.934 29.1973L50.8633 31.0971L50.2475 31.6399L37.352 30.5315C37.153 30.5146 36.9462 30.5488 36.7646 30.6326L26.5471 35.2776C26.5174 35.2699 26.4876 35.2624 26.4568 35.257L20.5795 34.2217L21.0548 33.009C21.2897 32.4093 20.9962 31.7327 20.3973 31.4938L1.61064 23.9929C1.00829 23.7521 0.325174 24.0448 0.0844231 24.6459C-0.156484 25.2468 0.136393 25.929 0.738583 26.1693L18.4432 33.2384L8.00979 59.8523L1.5665 57.5743C0.955071 57.3584 0.284162 57.6776 0.0676738 58.2879C-0.148814 58.8981 0.1713 59.5679 0.782569 59.784L8.29719 62.4406C8.88701 62.6492 9.55479 62.344 9.78255 61.7628L11.5262 57.315L16.095 59.8706L15.5911 60.6859C14.1633 62.9958 14.8842 66.0345 17.1984 67.4598C18.4222 68.2136 19.9414 68.3923 21.3088 67.9505C21.5282 69.373 22.3656 70.6423 23.5936 71.3986C24.8174 72.1523 26.3364 72.3311 27.7041 71.8892C27.9235 73.3117 28.7607 74.5809 29.9887 75.3373C31.2163 76.0934 32.7274 76.2714 34.0995 75.8294C34.3193 77.2513 35.1562 78.52 36.3839 79.2761C38.1683 80.375 40.5301 80.2108 42.1385 78.8652C42.5439 78.5259 42.8928 78.1211 43.1705 77.6717L43.9715 76.3761L44.631 76.7805C46.4177 77.8763 48.7789 77.7075 50.3848 76.3589C50.7896 76.0189 51.1377 75.6134 51.4146 75.1636C51.965 74.2694 52.1927 73.2672 52.1326 72.2915C52.5055 72.3811 52.8871 72.4292 53.2722 72.4292C54.9775 72.4292 56.5906 71.5316 57.483 70.0819C58.0205 69.2084 58.2661 68.2126 58.2038 67.2103C58.5758 67.2994 58.9566 67.3472 59.3404 67.3472C61.0457 67.3472 62.659 66.4495 63.5512 64.9998C64.0892 64.1258 64.3347 63.1294 64.2719 62.1262C64.6479 62.2156 65.0297 62.2623 65.4098 62.2623C67.0681 62.2623 68.6896 61.4289 69.6196 59.9181C71.0431 57.6054 70.3165 54.5681 67.9996 53.1471L67.195 52.6537L69.8935 49.8393L72.4177 52.3253C72.8604 52.7611 73.59 52.7707 74.0441 52.3473L79.6278 47.1384C80.1013 46.6964 80.1264 45.9546 79.6836 45.4817ZM21.9863 64.6245C21.2382 65.8344 19.6436 66.2112 18.4314 65.465C17.2192 64.7184 16.8417 63.1267 17.5894 61.9167L24.1661 51.2775C24.9001 50.09 26.4751 49.7017 27.6778 50.4109C28.9222 51.1453 29.2657 52.8482 28.5185 54.0572L21.9863 64.6245ZM28.3813 68.5633C27.6335 69.7731 26.0387 70.1501 24.8267 69.4037C23.6292 68.6661 23.2446 67.0526 23.9847 65.8555L29.2458 57.344C29.9798 56.1567 31.5548 55.7682 32.7575 56.4775C34.002 57.2118 34.3454 58.9148 33.5981 60.1237L28.3813 68.5633ZM34.777 72.502C34.4144 73.0881 33.8449 73.4984 33.1737 73.6572C32.502 73.8161 31.8091 73.7041 31.2219 73.3425C30.0246 72.6048 29.6399 70.9912 30.38 69.7942L34.326 63.4106C35.06 62.2231 36.6352 61.8348 37.8377 62.544C39.0821 63.2784 39.4256 64.9814 38.6784 66.1903L34.777 72.502ZM43.7583 72.2572L41.172 76.4409C40.433 77.6362 38.8167 78.0198 37.6171 77.2812C36.4198 76.5438 36.0353 74.93 36.7753 73.733L39.4059 69.4773C40.1398 68.2901 41.7151 67.9012 42.9176 68.6109C44.162 69.3451 44.5055 71.0483 43.7583 72.2572ZM65.1479 51.3981L59.3276 47.8282C58.7879 47.4971 58.0442 47.6745 57.7126 48.2132C57.3809 48.752 57.5586 49.4943 58.0983 49.8253L66.7699 55.1439C67.9834 55.8882 68.364 57.4792 67.6185 58.6906C66.8727 59.9018 65.2787 60.2818 64.0651 59.5376L54.7649 53.8332C54.2125 53.4942 53.4893 53.6668 53.1499 54.2182C52.8106 54.7697 52.9832 55.4915 53.5356 55.8303L60.7018 60.2256C61.9007 60.9609 62.2881 62.5739 61.5504 63.7723C60.8137 64.969 59.1978 65.3556 57.9972 64.6194L51.5029 60.6361C50.9503 60.2972 50.2273 60.4697 49.8879 61.0211C49.5485 61.5725 49.7212 62.2943 50.2736 62.6331L54.6337 65.3073C55.8325 66.0428 56.2201 67.6554 55.4823 68.854C54.7457 70.0506 53.1297 70.4375 51.9291 69.7011C51.9291 69.7011 48.0946 67.3515 48.0588 67.3344C47.5227 67.0759 46.8671 67.2598 46.549 67.7767C46.2096 68.3281 46.3823 69.05 46.9347 69.3887L48.5657 70.3891C49.7791 71.1334 50.1596 72.7244 49.4141 73.9358C48.6774 75.1325 47.0615 75.5191 45.8609 74.7828L45.2053 74.3806L45.7574 73.4873C46.4632 72.3455 46.6822 70.9392 46.3582 69.6292C46.0386 68.3364 45.2412 67.2579 44.1133 66.5925C43.2333 66.0734 42.2488 65.8631 41.2902 65.9276C41.4702 65.1558 41.4712 64.3423 41.2783 63.5625C40.9587 62.2697 40.1613 61.1912 39.0335 60.5258C38.1534 60.0065 37.169 59.7962 36.2104 59.8608C36.6945 57.7845 35.8032 55.5506 33.9536 54.459C33.0735 53.94 32.0891 53.7297 31.1305 53.794C31.6146 51.7178 30.7233 49.4839 28.8737 48.3923C26.5775 47.0375 23.5697 47.7795 22.1687 50.0457L17.3302 57.8733L12.3903 55.1111L19.7064 36.4482L23.6899 37.1499C22.5569 38.5546 22.2383 40.5323 23.0367 42.2824C23.8629 44.0931 25.6577 45.1645 27.532 45.1643C28.2147 45.1643 28.908 45.0221 29.5687 44.7218L36.445 41.5956C37.0273 41.3309 37.2922 40.6245 37.0268 40.0432C36.7617 39.4621 36.054 39.1974 35.4717 39.4624L28.5952 42.5885C27.2993 43.1779 25.7641 42.6046 25.1737 41.3107C24.5834 40.0168 25.1576 38.4848 26.4538 37.8954L37.4573 32.8931L50.5465 34.0182C50.5801 34.0212 50.6138 34.0226 50.6473 34.0226C50.9322 34.0226 51.2087 33.919 51.4243 33.7293L52.5385 32.7473L68.2211 48.1925L65.1479 51.3981Z"/>
</svg>
