<svg width="72" height="80" viewBox="0 0 72 80" xmlns="http://www.w3.org/2000/svg">
<path d="M35.377 24.3794C35.377 25.205 34.6967 25.8767 33.8605 25.8767C33.0243 25.8767 32.3443 25.205 32.3443 24.3794C32.3443 23.5538 33.0245 22.882 33.8605 22.882C34.6967 22.882 35.377 23.5538 35.377 24.3794ZM43.8288 22.882C42.9926 22.882 42.3123 23.5538 42.3123 24.3794C42.3123 25.205 42.9926 25.8767 43.8288 25.8767C44.665 25.8767 45.345 25.205 45.345 24.3794C45.3451 23.5538 44.665 22.882 43.8288 22.882ZM38.8448 22.882C38.0086 22.882 37.3286 23.5538 37.3286 24.3794C37.3286 25.205 38.0088 25.8767 38.8448 25.8767C39.681 25.8767 40.361 25.205 40.361 24.3794C40.361 23.5538 39.6807 22.882 38.8448 22.882ZM43.8288 17.8481C44.665 17.8481 45.345 17.1764 45.345 16.3508C45.345 15.5252 44.6648 14.8534 43.8288 14.8534C42.9926 14.8534 42.3123 15.525 42.3123 16.3508C42.3125 17.1764 42.9929 17.8481 43.8288 17.8481ZM28.8765 22.882C28.0403 22.882 27.36 23.5538 27.36 24.3794C27.36 25.205 28.0403 25.8767 28.8765 25.8767C29.7127 25.8767 30.3927 25.205 30.3927 24.3794C30.3927 23.5538 29.7124 22.882 28.8765 22.882ZM33.8605 18.8255C33.0243 18.8255 32.3443 19.497 32.3443 20.3228C32.3443 21.1486 33.0245 21.8202 33.8605 21.8202C34.6967 21.8202 35.377 21.1486 35.377 20.3228C35.377 19.497 34.6965 18.8255 33.8605 18.8255ZM38.8448 18.8255C38.0086 18.8255 37.3286 19.497 37.3286 20.3228C37.3286 21.1486 38.0088 21.8202 38.8448 21.8202C39.681 21.8202 40.361 21.1486 40.361 20.3228C40.361 19.497 39.6807 18.8255 38.8448 18.8255ZM33.8605 14.8534C33.0243 14.8534 32.3443 15.525 32.3443 16.3508C32.3443 17.1764 33.0245 17.8481 33.8605 17.8481C34.6967 17.8481 35.377 17.1764 35.377 16.3508C35.377 15.5252 34.6965 14.8534 33.8605 14.8534ZM38.8448 14.8534C38.0086 14.8534 37.3286 15.525 37.3286 16.3508C37.3286 17.1764 38.0088 17.8481 38.8448 17.8481C39.681 17.8481 40.361 17.1764 40.361 16.3508C40.361 15.5252 39.6807 14.8534 38.8448 14.8534ZM28.8765 18.8255C28.0403 18.8255 27.36 19.497 27.36 20.3228C27.36 21.1486 28.0403 21.8202 28.8765 21.8202C29.7127 21.8202 30.3927 21.1486 30.3927 20.3228C30.3927 19.497 29.7124 18.8255 28.8765 18.8255ZM23.8922 22.882C23.056 22.882 22.376 23.5538 22.376 24.3794C22.376 25.205 23.0562 25.8767 23.8922 25.8767C24.7284 25.8767 25.4087 25.205 25.4087 24.3794C25.4087 23.5538 24.7282 22.882 23.8922 22.882ZM43.8288 18.8255C42.9926 18.8255 42.3123 19.497 42.3123 20.3228C42.3123 21.1486 42.9926 21.8202 43.8288 21.8202C44.665 21.8202 45.345 21.1486 45.345 20.3228C45.3451 19.497 44.665 18.8255 43.8288 18.8255ZM20.4243 24.4216C20.4243 23.6413 19.7839 23.0089 18.9936 23.0089C17.5172 23.0089 16.3159 21.8228 16.3159 20.365C16.3159 18.9072 17.5172 17.7214 18.9936 17.7214C19.7839 17.7214 20.4243 17.0889 20.4243 16.3088C20.4243 15.5284 19.7839 14.8961 18.9936 14.8961C15.9391 14.8961 13.4545 17.3495 13.4545 20.3652C13.4545 23.3811 15.9393 25.8344 18.9936 25.8344C19.7838 25.8342 20.4243 25.2017 20.4243 24.4216Z"/>
<path fill-rule="evenodd" clip-rule="evenodd" d="M32.5977 79.0987C33.6325 79.6883 34.8106 80 36.0054 80C37.2008 80 38.3799 79.6878 39.4153 79.0978L68.5913 62.4592C68.7407 62.3741 68.8906 62.2797 69.064 62.1613C69.2204 62.0544 69.3805 61.9328 69.5557 61.788L69.6309 61.7258C69.7869 61.5928 69.9377 61.4525 70.0819 61.3056L70.1061 61.2802C70.8489 60.5137 71.4042 59.5725 71.7085 58.5692C71.7164 58.5434 71.7238 58.5177 71.7302 58.4941C71.7656 58.3733 71.7979 58.2514 71.8266 58.1278C71.8297 58.1144 71.8327 58.101 71.8357 58.0875C71.8398 58.069 71.8439 58.0503 71.848 58.0312L71.8531 58.0077C71.8758 57.9008 71.8956 57.7933 71.9131 57.6852L71.9161 57.6662C71.9229 57.6261 71.9291 57.5861 71.9353 57.5427C71.95 57.4352 71.9617 57.3273 71.9712 57.2203L71.9734 57.198C71.976 57.1747 71.9782 57.1516 71.9801 57.1284C71.9813 57.1141 71.9824 57.0998 71.9834 57.0855C71.9948 56.92 72.0002 56.7698 72 56.6275L71.9945 23.3602C71.9945 22.7806 71.9163 22.1981 71.7628 21.6297C71.6832 21.3347 71.5808 21.0395 71.4577 20.7511C70.9545 19.5725 70.1286 18.565 69.0696 17.8375C68.8934 17.7164 68.7395 17.6189 68.5844 17.5306L39.4018 0.90125C38.3671 0.311719 37.1889 0 35.9941 0C34.7987 0 33.6196 0.312187 32.5842 0.9025L3.40865 17.5411C3.25926 17.6262 3.10924 17.7206 2.93628 17.8389C2.28968 18.2814 1.72854 18.8291 1.26756 19.4672C0.965309 19.8861 0.711163 20.3409 0.511772 20.82C0.172015 21.637 0 22.4956 0 23.3719L0.00585495 56.6397C0.00585495 56.7845 0.0112353 56.9336 0.0224708 57.0955C0.0251611 57.1334 0.0286427 57.1706 0.0325988 57.208L0.0346561 57.2281C0.0439927 57.3363 0.0555447 57.4444 0.0710529 57.5555C0.0767498 57.5961 0.0830798 57.6366 0.0917834 57.6903C0.109191 57.7994 0.12913 57.9075 0.152075 58.0153C0.160621 58.0552 0.169325 58.095 0.178028 58.133C0.206038 58.2541 0.237687 58.3744 0.27361 58.4984C0.279065 58.5185 0.284991 58.5385 0.289665 58.5542L0.291808 58.5614C0.471893 59.157 0.735533 59.7258 1.07545 60.2522L1.08115 60.2611L1.08225 60.2628C1.31709 60.6253 1.58817 60.9664 1.88156 61.2706L1.89984 61.2898L1.91748 61.3083C2.05943 61.4536 2.20977 61.5941 2.36311 61.725L2.44049 61.7894C2.61425 61.9336 2.77455 62.0556 2.93058 62.163C3.10703 62.2841 3.26084 62.3813 3.41514 62.4692L32.5977 79.0987ZM68.9969 22.3577C69.0867 22.6895 69.1321 23.0269 69.1321 23.3606L69.1329 28.5144H2.86215L2.86127 23.3714C2.86127 22.8648 2.96128 22.3672 3.15862 21.8925C3.27461 21.6141 3.42226 21.3498 3.59744 21.107C3.86582 20.7355 4.1915 20.4173 4.56496 20.1617C4.67162 20.0891 4.75834 20.0339 4.83889 19.9881L34.0154 3.34891C34.6163 3.00656 35.3005 2.82531 35.9941 2.82531C36.6874 2.82531 37.3711 3.00625 37.9714 3.34828L67.153 19.9781C67.2364 20.0256 67.3257 20.0825 67.4342 20.157C68.0484 20.5789 68.5276 21.1642 68.8199 21.8483C68.8914 22.0161 68.9509 22.1873 68.9969 22.3577ZM35.377 24.3794C35.377 25.205 34.6967 25.8767 33.8605 25.8767C33.0243 25.8767 32.3443 25.205 32.3443 24.3794C32.3443 23.5538 33.0245 22.882 33.8605 22.882C34.6967 22.882 35.377 23.5538 35.377 24.3794ZM43.8288 22.882C42.9926 22.882 42.3123 23.5538 42.3123 24.3794C42.3123 25.205 42.9926 25.8767 43.8288 25.8767C44.665 25.8767 45.345 25.205 45.345 24.3794C45.3451 23.5538 44.665 22.882 43.8288 22.882ZM38.8448 22.882C38.0086 22.882 37.3286 23.5538 37.3286 24.3794C37.3286 25.205 38.0088 25.8767 38.8448 25.8767C39.681 25.8767 40.361 25.205 40.361 24.3794C40.361 23.5538 39.6807 22.882 38.8448 22.882ZM43.8288 17.8481C44.665 17.8481 45.345 17.1764 45.345 16.3508C45.345 15.5252 44.6648 14.8534 43.8288 14.8534C42.9926 14.8534 42.3123 15.525 42.3123 16.3508C42.3125 17.1764 42.9929 17.8481 43.8288 17.8481ZM28.8765 22.882C28.0403 22.882 27.36 23.5538 27.36 24.3794C27.36 25.205 28.0403 25.8767 28.8765 25.8767C29.7127 25.8767 30.3927 25.205 30.3927 24.3794C30.3927 23.5538 29.7124 22.882 28.8765 22.882ZM33.8605 18.8255C33.0243 18.8255 32.3443 19.497 32.3443 20.3228C32.3443 21.1486 33.0245 21.8202 33.8605 21.8202C34.6967 21.8202 35.377 21.1486 35.377 20.3228C35.377 19.497 34.6965 18.8255 33.8605 18.8255ZM38.8448 18.8255C38.0086 18.8255 37.3286 19.497 37.3286 20.3228C37.3286 21.1486 38.0088 21.8202 38.8448 21.8202C39.681 21.8202 40.361 21.1486 40.361 20.3228C40.361 19.497 39.6807 18.8255 38.8448 18.8255ZM33.8605 14.8534C33.0243 14.8534 32.3443 15.525 32.3443 16.3508C32.3443 17.1764 33.0245 17.8481 33.8605 17.8481C34.6967 17.8481 35.377 17.1764 35.377 16.3508C35.377 15.5252 34.6965 14.8534 33.8605 14.8534ZM38.8448 14.8534C38.0086 14.8534 37.3286 15.525 37.3286 16.3508C37.3286 17.1764 38.0088 17.8481 38.8448 17.8481C39.681 17.8481 40.361 17.1764 40.361 16.3508C40.361 15.5252 39.6807 14.8534 38.8448 14.8534ZM28.8765 18.8255C28.0403 18.8255 27.36 19.497 27.36 20.3228C27.36 21.1486 28.0403 21.8202 28.8765 21.8202C29.7127 21.8202 30.3927 21.1486 30.3927 20.3228C30.3927 19.497 29.7124 18.8255 28.8765 18.8255ZM23.8922 22.882C23.056 22.882 22.376 23.5538 22.376 24.3794C22.376 25.205 23.0562 25.8767 23.8922 25.8767C24.7284 25.8767 25.4087 25.205 25.4087 24.3794C25.4087 23.5538 24.7282 22.882 23.8922 22.882ZM43.8288 18.8255C42.9926 18.8255 42.3123 19.497 42.3123 20.3228C42.3123 21.1486 42.9926 21.8202 43.8288 21.8202C44.665 21.8202 45.345 21.1486 45.345 20.3228C45.3451 19.497 44.665 18.8255 43.8288 18.8255ZM20.4243 24.4216C20.4243 23.6413 19.7839 23.0089 18.9936 23.0089C17.5172 23.0089 16.3159 21.8228 16.3159 20.365C16.3159 18.9072 17.5172 17.7214 18.9936 17.7214C19.7839 17.7214 20.4243 17.0889 20.4243 16.3088C20.4243 15.5284 19.7839 14.8961 18.9936 14.8961C15.9391 14.8961 13.4545 17.3495 13.4545 20.3652C13.4545 23.3811 15.9393 25.8344 18.9936 25.8344C19.7838 25.8342 20.4243 25.2017 20.4243 24.4216ZM69.1363 48.66H2.8656L2.86263 31.3399H69.1334L69.1363 48.66ZM3.95966 59.328C3.78781 59.1502 3.63225 58.9544 3.49663 58.7463L3.49269 58.7403L3.49109 58.738C3.29218 58.4308 3.13804 58.0994 3.03439 57.7566L3.02237 57.7145C3.00243 57.6452 2.98391 57.5753 2.96729 57.503L2.95226 57.4342C2.93929 57.3734 2.92805 57.3125 2.91761 57.2469L2.91444 57.2275L2.9051 57.1691C2.89656 57.1066 2.89023 57.0436 2.88437 56.9784L2.87694 56.9041C2.87092 56.8164 2.86697 56.7284 2.86697 56.6384L2.86608 51.4854H69.1368L69.1376 56.6311C69.1379 56.7197 69.1337 56.8077 69.128 56.8911L69.1199 56.972C69.1143 57.0355 69.1079 57.0989 69.0996 57.1584L69.0865 57.2417C69.0764 57.3048 69.0647 57.3675 69.052 57.4278L69.0368 57.4975C69.0202 57.5689 69.0012 57.6395 68.9795 57.7141L68.9696 57.7491C68.791 58.3366 68.469 58.8819 68.0346 59.33L68.0224 59.3431C67.9413 59.4263 67.8538 59.5077 67.7631 59.5847L67.7175 59.6222C67.6115 59.7098 67.5183 59.7808 67.4346 59.8383C67.3279 59.9109 67.2412 59.9661 67.1606 60.0119L37.9844 76.6509C37.3835 76.9934 36.6993 77.1745 36.0057 77.1745C35.3124 77.1745 34.6286 76.9936 34.0284 76.6516L4.84601 60.0222C4.76277 59.9748 4.67336 59.918 4.5648 59.8434C4.47982 59.785 4.38946 59.7158 4.27774 59.6231L4.23596 59.5886C4.14624 59.5119 4.05873 59.4303 3.98688 59.3567C3.98119 59.3509 3.9652 59.3338 3.95966 59.328Z"/>
</svg>
