<svg width="51" height="80" viewBox="0 0 51 80" xmlns="http://www.w3.org/2000/svg">
<path d="M41.6053 28V4C41.6041 2.93949 41.1795 1.92275 40.4247 1.17285C39.6699 0.422957 38.6464 0.00115759 37.5789 0H20.1316C18.9418 0.00129514 17.786 0.394688 16.8453 1.11854C15.9047 1.8424 15.2323 2.85581 14.9336 4H14.7632C13.3398 4.00141 11.9751 4.56377 10.9687 5.56366C9.96221 6.56354 9.39616 7.91928 9.39474 9.33333V28C9.39929 31.0601 10.2866 34.0549 11.9517 36.6294C13.6168 39.2039 15.9897 41.2504 18.7895 42.5263V44.8956C18.1125 44.7232 17.402 44.7285 16.7277 44.9109C16.0534 45.0934 15.4383 45.4467 14.9427 45.9362L13.4211 47.4479C13.0568 47.811 12.8057 48.2707 12.6979 48.772C12.5901 49.2733 12.6301 49.7948 12.8132 50.2741L3.25827 55.9701C2.26679 56.5647 1.44618 57.403 0.875497 58.4042C0.304814 59.4053 0.00329721 60.5356 0 61.6862V80H2.68421V61.6862C2.68629 60.9958 2.8673 60.3176 3.20979 59.7169C3.55228 59.1162 4.04472 58.6133 4.63966 58.2565L8.05263 56.222V80H10.7368V54.6667H10.6617L13.4548 53.0015C13.4365 53.1113 13.4252 53.2221 13.4211 53.3333V57.3333C13.422 58.0403 13.7051 58.718 14.2083 59.2179C14.7114 59.7178 15.3937 59.9991 16.1053 60H16.8917L22.6533 65.724C23.0783 66.1418 23.5925 66.459 24.1579 66.6521V80H26.8421V66.6521C27.4075 66.459 27.9218 66.1418 28.3467 65.724L34.1083 60H34.8947C35.6063 59.9991 36.2886 59.7178 36.7917 59.2179C37.2949 58.718 37.578 58.0403 37.5789 57.3333V53.3333C37.5748 53.2221 37.5635 53.1113 37.5452 53.0015L40.3383 54.6667H40.2632V80H42.9474V56.222L46.3603 58.2565C46.9553 58.6133 47.4477 59.1162 47.7902 59.7169C48.1327 60.3176 48.3137 60.9958 48.3158 61.6862V80H51V61.6862C50.9967 60.5356 50.6952 59.4053 50.1245 58.4041C49.5538 57.403 48.7332 56.5647 47.7417 55.9701L38.1868 50.2741C38.3699 49.7948 38.4099 49.2733 38.3021 48.772C38.1943 48.2707 37.9432 47.811 37.5789 47.4479L36.0573 45.9362C35.5618 45.4465 34.9467 45.0931 34.2724 44.9106C33.5981 44.7281 32.8876 44.7227 32.2105 44.895V42.5263C35.0103 41.2504 37.3832 39.2039 39.0483 36.6294C40.7134 34.0549 41.6007 31.0601 41.6053 28ZM12.0789 9.33333C12.0799 8.62637 12.363 7.94863 12.8662 7.44873C13.3693 6.94883 14.0515 6.66758 14.7632 6.66667V8H17.4474V5.33333C17.4483 4.62637 17.7314 3.94863 18.2346 3.44873C18.7378 2.94883 19.42 2.66758 20.1316 2.66667H37.5789C37.9348 2.6669 38.2761 2.80746 38.5277 3.05745C38.7793 3.30745 38.9208 3.64645 38.9211 4V12.1758L37.9708 11.5469C37.5042 11.237 36.9773 11.0277 36.4243 10.9324C35.8712 10.8371 35.3042 10.8579 34.7598 10.9935L25.8277 13.2109C25.6131 13.2648 25.3885 13.2652 25.1737 13.2123L16.2403 10.9935C15.9215 10.9137 15.5939 10.8734 15.2651 10.8737C14.4698 10.8734 13.6922 11.1072 13.0305 11.5456L12.0789 12.1758V9.33333ZM16.8405 47.8216C17.0604 47.6045 17.3489 47.4694 17.6574 47.439C17.9658 47.4087 18.2754 47.4849 18.5339 47.6549L23.3074 50.8169C22.8195 50.9803 22.3894 51.28 22.0687 51.6801L20.0399 51.0078C19.3556 50.7816 18.6391 50.6664 17.9179 50.6667H16.661L15.3189 49.3333L16.8405 47.8216ZM25.5 49.0642L21.4737 46.3972V43.4735C24.1114 44.1755 26.8886 44.1755 29.5263 43.4735V46.3972L25.5 49.0642ZM26.8421 53.3333V57.3333H24.1579V53.3333H26.8421ZM17.9179 57.3333H16.1053L16.1026 53.3333H17.9178C18.3508 53.3333 18.7809 53.4023 19.1918 53.5378L21.4737 54.2943V56.3724L19.1932 57.1276C18.782 57.264 18.3514 57.3335 17.9179 57.3333ZM26.4489 63.8385C26.3243 63.9624 26.1764 64.0606 26.0135 64.1276C25.8507 64.1947 25.6762 64.2292 25.5 64.2292C25.3237 64.2292 25.1492 64.1947 24.9864 64.1276C24.8236 64.0606 24.6756 63.9624 24.5511 63.8385L20.2672 59.5827L22.0684 58.9863C22.3171 59.3009 22.6343 59.5555 22.9962 59.731C23.358 59.9066 23.7552 59.9985 24.1579 60H26.8421C27.2447 59.9985 27.6418 59.9066 28.0036 59.7311C28.3654 59.5556 28.6826 59.3011 28.9314 58.9866L30.7321 59.5833L26.4489 63.8385ZM34.8947 57.3333H33.0821C32.6492 57.3334 32.2191 57.2643 31.8082 57.1289L29.5263 56.3724V54.2943L31.8068 53.5391C32.218 53.4027 32.6486 53.3332 33.0821 53.3333H34.8947V57.3333ZM32.4661 47.6549C32.7246 47.4849 33.0341 47.4087 33.3426 47.439C33.6511 47.4694 33.9396 47.6045 34.1595 47.8216L35.6811 49.3333L34.339 50.6667H33.0821C32.3604 50.6663 31.6434 50.7819 30.9589 51.0091L28.9316 51.6804C28.6109 51.2801 28.1806 50.9803 27.6926 50.8169L32.4661 47.6549ZM25.5 41.3333C21.9418 41.3292 18.5305 39.9231 16.0145 37.4235C13.4985 34.9239 12.0831 31.5349 12.0789 28V15.38L14.5207 13.7631C14.6766 13.6609 14.8521 13.5919 15.0361 13.5603C15.2202 13.5287 15.4088 13.5352 15.5902 13.5795L24.5249 15.7995C25.1658 15.9566 25.8357 15.9561 26.4764 15.7981L35.4098 13.5794C35.5915 13.5348 35.7804 13.5283 35.9648 13.5601C36.1491 13.5919 36.3248 13.6614 36.4806 13.7643L38.9211 15.3802V28C38.9169 31.5349 37.5015 34.9239 34.9855 37.4235C32.4695 39.9231 29.0582 41.3292 25.5 41.3333Z" />
<path d="M18.7895 26.6667C19.5307 26.6667 20.1316 26.0697 20.1316 25.3333C20.1316 24.597 19.5307 24 18.7895 24C18.0483 24 17.4474 24.597 17.4474 25.3333C17.4474 26.0697 18.0483 26.6667 18.7895 26.6667Z" />
<path d="M21.4737 18.6667H16.1053V21.3333H21.4737V18.6667Z" />
<path d="M32.2105 26.6667C32.9518 26.6667 33.5526 26.0697 33.5526 25.3333C33.5526 24.597 32.9518 24 32.2105 24C31.4693 24 30.8684 24.597 30.8684 25.3333C30.8684 26.0697 31.4693 26.6667 32.2105 26.6667Z" />
<path d="M34.8947 18.6667H29.5263V21.3333H34.8947V18.6667Z" />
<path d="M26.8421 26.6667H24.1579V32H26.8421V26.6667Z" />
<path d="M21.3505 33.5247L19.9665 35.8086C21.6376 36.8063 23.5505 37.3333 25.5001 37.3333C27.4497 37.3333 29.3625 36.8063 31.0336 35.8086L29.6496 33.5247C28.3916 34.2588 26.959 34.6459 25.5 34.6459C24.041 34.6459 22.6085 34.2588 21.3505 33.5247Z" />
<path d="M30.8684 70.6667C31.6096 70.6667 32.2105 70.0697 32.2105 69.3333C32.2105 68.597 31.6096 68 30.8684 68C30.1272 68 29.5263 68.597 29.5263 69.3333C29.5263 70.0697 30.1272 70.6667 30.8684 70.6667Z" />
<path d="M30.8684 77.3333C31.6096 77.3333 32.2105 76.7364 32.2105 76C32.2105 75.2636 31.6096 74.6667 30.8684 74.6667C30.1272 74.6667 29.5263 75.2636 29.5263 76C29.5263 76.7364 30.1272 77.3333 30.8684 77.3333Z" />
</svg>
