<svg viewBox="0 0 13 13" fill="none" xmlns="http://www.w3.org/2000/svg">
<path fill-rule="evenodd" clip-rule="evenodd" d="M1.63754 2.3062C1.49287 2.3062 1.35414 2.36368 1.25184 2.46597C1.14955 2.56826 1.09208 2.70699 1.09208 2.85166V10.488C1.09208 10.6327 1.14955 10.7714 1.25184 10.8737C1.35414 10.976 1.49288 11.0335 1.63754 11.0335H9.2739C9.41856 11.0335 9.5573 10.976 9.6596 10.8737C9.76189 10.7714 9.81936 10.6327 9.81936 10.488V7.5753C9.81936 7.27405 10.0636 7.02984 10.3648 7.02984C10.6661 7.02984 10.9103 7.27405 10.9103 7.5753V10.488C10.9103 10.922 10.7379 11.3382 10.431 11.6451C10.1241 11.952 9.70789 12.1244 9.2739 12.1244H1.63754C1.20355 12.1244 0.787331 11.952 0.480453 11.6451C0.173576 11.3382 0.00117493 10.922 0.00117493 10.488V2.85166C0.00117493 2.41767 0.173576 2.00146 0.480453 1.69458C0.787331 1.3877 1.20355 1.21529 1.63754 1.21529H4.55026C4.85151 1.21529 5.09572 1.4595 5.09572 1.76075C5.09572 2.06199 4.85151 2.3062 4.55026 2.3062H1.63754Z" />
<path fill-rule="evenodd" clip-rule="evenodd" d="M8.88821 0.28415C9.10122 0.0711363 9.44658 0.0711363 9.6596 0.28415L11.8414 2.46597C12.0544 2.67898 12.0544 3.02433 11.8414 3.23734L6.38687 8.69189C6.28458 8.79419 6.14584 8.85166 6.00117 8.85166H3.81936C3.51811 8.85166 3.2739 8.60745 3.2739 8.30621V6.12439C3.2739 5.97972 3.33137 5.84099 3.43366 5.7387L8.88821 0.28415ZM4.36481 6.35032V7.76075H5.77524L10.6843 2.85166L9.2739 1.44123L4.36481 6.35032Z" />
</svg>
