<svg width="960" height="604" viewBox="0 0 960 604" fill="none" xmlns="http://www.w3.org/2000/svg">
<g style="mix-blend-mode:overlay" opacity="0.5">
<path d="M68.178 471.65V44.764C68.178 6.63024 65.4221 -20.5577 59.9101 -36.7999C50.953 -64.3409 31.3162 -80.23 1 -84.4671V-94.0005H249.042V-84.4671C218.725 -81.6423 199.089 -67.5187 190.132 -42.0962C184.62 -27.2664 181.864 -0.784669 181.864 37.349V166.58L304.851 64.8901C374.441 3.45241 409.235 -37.8591 409.235 -59.0445C409.235 -65.4001 407.168 -71.7558 403.034 -78.1114L381.331 -84.4671V-94.0005H630.406V-84.4671C584.931 -84.4671 536.012 -63.6347 483.648 -21.9701C474.002 -14.2021 432.662 21.46 359.627 85.0163C451.954 172.583 528.089 292.28 588.032 444.109C595.611 464.588 607.324 495.66 623.171 537.325C640.396 571.221 661.411 589.935 686.215 593.466V603H458.844V593.466C482.959 589.935 495.017 576.165 495.017 552.155C495.017 498.485 468.834 427.867 416.47 340.3C375.13 271.095 329.655 208.598 280.047 152.81L181.864 233.314V464.235C181.864 505.194 184.275 532.735 189.098 546.858C198.744 575.105 218.725 590.641 249.042 593.466V603H1V593.466C29.9382 588.523 49.2303 574.046 58.8763 550.036C65.0774 534.5 68.178 508.371 68.178 471.65Z" stroke="white"/>
<path d="M454.648 166.58L577.636 64.8901C647.225 3.45241 682.02 -37.8591 682.02 -59.0445C682.02 -65.4001 679.953 -71.7558 675.819 -78.1114L654.115 -84.4671V-94.0005H903.191V-84.4671C857.716 -84.4671 808.797 -63.6347 756.432 -21.9701C746.786 -14.2021 705.446 21.46 632.411 85.0163C724.738 172.583 800.873 292.28 860.817 444.109C868.396 464.588 880.109 495.66 895.956 537.325C913.182 571.221 934.196 589.935 959 593.466V603H731.628V593.466C755.743 589.935 767.801 576.165 767.801 552.155C767.801 498.485 741.619 427.867 689.254 340.3C647.914 271.095 602.44 208.598 552.832 152.81L484.576 208.08L469.612 185.075L454.648 166.58Z" stroke="white"/>
</g>
</svg>
